<svg width="40" height="43" viewBox="0 0 40 43" fill="none" xmlns="http://www.w3.org/2000/svg">
<path d="M19.9 35.64C18.98 35.64 18.28 34.94 18.28 34.02V14.87C18.28 13.95 18.98 13.25 19.9 13.25C20.82 13.25 21.52 13.95 21.52 14.87V34.02C21.52 34.93 20.82 35.64 19.9 35.64Z" fill="#3A2C51"/>
<path d="M25.46 35.64H25.41C24.49 35.59 23.85 34.83 23.85 33.97L24.55 14.82C24.6 13.9 25.36 13.2 26.22 13.26C27.14 13.31 27.78 14.07 27.78 14.93L27.08 34.08C27.02 34.93 26.32 35.64 25.46 35.64Z" fill="#3A2C51"/>
<path d="M14.35 35.64C13.49 35.64 12.79 34.94 12.73 34.08L12.03 14.93C11.98 14.01 12.68 13.31 13.59 13.26C14.51 13.21 15.21 13.91 15.26 14.82L15.96 33.97C16.01 34.89 15.31 35.59 14.4 35.64H14.35Z" fill="#3A2C51"/>
<path d="M38.08 6.89001H34.25C34.25 6.89001 34.25 6.89001 34.2 6.89001H27.89V3.38C27.89 1.87 26.7 0.679993 25.19 0.679993H14.62C13.11 0.679993 11.92 1.87 11.92 3.38V6.89001H5.5H1.72C0.800001 6.89001 0.100006 7.59001 0.100006 8.51001C0.100006 9.43001 0.800001 10.13 1.72 10.13H4.03999L6.74001 40.55C6.79001 41.36 7.49999 42.01 8.35999 42.01H31.5C32.36 42.01 33.06 41.36 33.12 40.55L35.82 10.13H38.19C39.11 10.13 39.81 9.43001 39.81 8.51001C39.8 7.59001 39 6.89001 38.08 6.89001ZM15.16 3.92001H24.65V6.89001H15.16V3.92001ZM29.99 38.76H9.76999L7.23999 10.12H32.43L29.99 38.76Z" fill="#3A2C51"/>
</svg>
