<svg width="412" height="287" viewBox="0 0 412 287" fill="none" xmlns="http://www.w3.org/2000/svg">
<g clip-path="url(#clip0)">
<path d="M113.32 110.876H393.408C403.398 110.876 411.471 102.77 411.471 92.8023C411.471 82.806 403.37 74.7288 393.408 74.7288H113.32C103.329 74.7288 95.2558 82.8347 95.2558 92.8023C95.2558 102.799 103.329 110.876 113.32 110.876Z" fill="#FFBF00"/>
<path d="M170.202 219.518H353.644C363.635 219.518 371.708 211.412 371.708 201.444C371.708 191.448 363.607 183.371 353.644 183.371H170.202C160.211 183.371 152.138 191.477 152.138 201.444C152.138 211.412 160.239 219.518 170.202 219.518Z" fill="#FF0001"/>
<path d="M144.065 163.664H374.142C384.133 163.664 392.205 155.559 392.205 145.591C392.205 135.623 384.104 127.517 374.142 127.517H144.065C134.074 127.517 126.001 135.623 126.001 145.591C126.001 155.559 134.074 163.664 144.065 163.664Z" fill="#FF8001"/>
<path d="M110.285 110.618L371.737 163.263C381.585 164.953 390.917 158.337 392.606 148.484C394.295 138.631 387.682 129.293 377.834 127.603L116.383 74.9579C106.535 73.268 97.2025 79.8845 95.5135 89.7376C93.8245 99.5906 100.437 108.957 110.285 110.618Z" fill="#FFD101"/>
<path d="M141.088 163.407L351.612 219.117C361.46 220.807 370.792 214.19 372.481 204.337C374.17 194.484 367.557 185.147 357.71 183.457L147.186 127.746C137.338 126.057 128.005 132.673 126.316 142.526C124.656 152.379 131.269 161.717 141.088 163.407Z" fill="#FF8001"/>
<path d="M12.8956 36.1758H91.9065C98.7484 36.1758 104.302 28.0699 104.302 18.1022C104.302 8.13453 98.7484 0 91.9065 0H12.8956C6.05367 0 0.5 8.10589 0.5 18.0736C0.5 28.0412 6.05367 36.1758 12.8956 36.1758Z" fill="#070707"/>
<path d="M74.2149 29.9889L95.8284 55.2518C102.413 62.7561 113.835 63.5295 121.335 56.9417C128.835 50.3538 129.608 38.9254 123.024 31.421L101.411 6.15814C94.8264 -1.34626 83.4042 -2.11961 75.9039 4.46822C68.4035 11.056 67.6592 22.4845 74.2149 29.9889Z" fill="#070707"/>
<path d="M213.228 287.029C229.213 287.029 242.17 274.064 242.17 258.071C242.17 242.078 229.213 229.113 213.228 229.113C197.244 229.113 184.286 242.078 184.286 258.071C184.286 274.064 197.244 287.029 213.228 287.029Z" fill="black"/>
<path d="M313.738 287.029C329.723 287.029 342.68 274.064 342.68 258.071C342.68 242.078 329.723 229.113 313.738 229.113C297.754 229.113 284.796 242.078 284.796 258.071C284.796 274.064 297.754 287.029 313.738 287.029Z" fill="black"/>
</g>
<defs>
<clipPath id="clip0">
<rect width="411" height="287" fill="white" transform="translate(0.5)"/>
</clipPath>
</defs>
</svg>
