<?xml version="1.0" encoding="utf-8"?>
<!-- Generator: Adobe Illustrator 24.1.1, SVG Export Plug-In . SVG Version: 6.00 Build 0)  -->
<svg version="1.1" id="Camada_1" xmlns="http://www.w3.org/2000/svg" xmlns:xlink="http://www.w3.org/1999/xlink" x="0px" y="0px"
	 viewBox="0 0 1366 768" style="enable-background:new 0 0 1366 768;" xml:space="preserve">
<style type="text/css">
	.st0{fill:#FFBF00;}
	.st1{fill:#FF0001;}
	.st2{fill:#FF8001;}
	.st3{fill:#FFD101;}
	.st4{fill:#070707;}
</style>
<g>
	<g>
		<path class="st0" d="M253.49,253.36h361.19c12.88,0,23.31-10.44,23.31-23.31c0-12.88-10.44-23.31-23.31-23.31H253.49
			c-12.88,0-23.31,10.44-23.31,23.31C230.18,242.92,240.62,253.36,253.49,253.36z"/>
	</g>
	<g>
		<path class="st1" d="M326.86,393.36h236.56c12.88,0,23.31-10.44,23.31-23.31s-10.44-23.31-23.31-23.31H326.86
			c-12.88,0-23.31,10.44-23.31,23.31S313.99,393.36,326.86,393.36z"/>
	</g>
	<g>
		<path class="st2" d="M293.12,321.38h296.71c12.88,0,23.31-10.44,23.31-23.31s-10.44-23.31-23.31-23.31H293.12
			c-12.88,0-23.31,10.44-23.31,23.31S280.25,321.38,293.12,321.38z"/>
	</g>
	<g>
		<path class="st3" d="M249.57,253.03l337.16,67.84c12.69,2.17,24.74-6.36,26.91-19.05c2.17-12.69-6.36-24.74-19.05-26.91
			l-337.16-67.84c-12.69-2.17-24.74,6.36-26.91,19.05C228.35,238.81,236.88,250.86,249.57,253.03z"/>
	</g>
	<g>
		<path class="st2" d="M289.31,321.05l271.5,71.81c12.69,2.17,24.74-6.36,26.91-19.05c2.17-12.69-6.36-24.74-19.05-26.91
			l-271.5-71.81c-12.69-2.17-24.74,6.36-26.91,19.05S276.62,318.88,289.31,321.05z"/>
	</g>
	<g>
		<path class="st4" d="M124,157.07h101.87c8.84,0,16-10.44,16-23.31s-7.16-23.31-16-23.31H124c-8.84,0-16,10.44-16,23.31
			S115.16,157.07,124,157.07z"/>
	</g>
	<g>
		<path class="st4" d="M203.07,149.11l27.85,32.54c8.48,9.69,23.21,10.67,32.9,2.19c9.69-8.48,10.67-23.21,2.19-32.9l-27.85-32.54
			c-8.48-9.69-23.21-10.67-32.9-2.19C195.58,124.69,194.59,139.42,203.07,149.11z"/>
	</g>
	<g>
		<circle cx="382.34" cy="443.05" r="37.31"/>
	</g>
	<g>
		<circle cx="511.94" cy="443.05" r="37.31"/>
	</g>
</g>
</svg>
