<svg width="82" height="82" viewBox="0 0 82 82" fill="none" xmlns="http://www.w3.org/2000/svg">
<g clip-path="url(#clip0)">
<path d="M40.9 78.88C61.8758 78.88 78.88 61.8758 78.88 40.9C78.88 19.9242 61.8758 2.92001 40.9 2.92001C19.9242 2.92001 2.92001 19.9242 2.92001 40.9C2.92001 61.8758 19.9242 78.88 40.9 78.88Z" fill="#4DCFE0"/>
<path d="M40.9 81.8C18.31 81.8 0 63.49 0 40.9C0 18.31 18.31 0 40.9 0C63.49 0 81.8 18.31 81.8 40.9C81.8 63.49 63.49 81.8 40.9 81.8ZM40.9 5.84C21.52 5.84 5.84 21.52 5.84 40.9C5.84 60.28 21.52 75.96 40.9 75.96C60.28 75.96 75.96 60.28 75.96 40.9C75.96 21.52 60.28 5.84 40.9 5.84Z" fill="#3A2C51"/>
<path d="M57.46 37.98H43.82V24.35C43.82 22.69 42.55 21.43 40.9 21.43C39.24 21.43 37.98 22.7 37.98 24.35V37.98H24.35C22.69 37.98 21.43 39.25 21.43 40.9C21.43 42.56 22.7 43.82 24.35 43.82H37.98V57.45C37.98 59.11 39.25 60.37 40.9 60.37C42.56 60.37 43.82 59.1 43.82 57.45V43.82H57.45C59.11 43.82 60.37 42.55 60.37 40.9C60.37 39.25 59.11 37.98 57.46 37.98Z" fill="#3A2C51"/>
</g>
<defs>
<clipPath id="clip0">
<rect width="81.8" height="81.8" fill="white"/>
</clipPath>
</defs>
</svg>
