<svg width="45" height="45" viewBox="0 0 45 45" fill="none" xmlns="http://www.w3.org/2000/svg">
<path d="M9.35999 35.17L13.87 39.68L1.98 42.49L4.78999 30.61L9.35999 35.17Z" fill="#4DCFE0"/>
<path d="M35.82 17.79L13.98 39.62L13.87 39.68L9.35999 35.17L31.25 13.22L35.82 17.79Z" fill="#4DCFE0"/>
<path d="M31.25 13.22L9.35999 35.17L4.78999 30.61L4.85001 30.49L26.69 8.64999L31.25 13.22Z" fill="#4DCFE0"/>
<path d="M42.49 11.05L35.82 17.79L31.25 13.22L26.69 8.64999L33.42 1.98001L42.49 11.05Z" fill="#D4E1F4"/>
<path d="M43.72 9.82001L34.65 0.750006C33.95 0.0500061 32.84 0.0500061 32.19 0.750006L25.46 7.42002L3.62 29.26C3.5 29.38 3.39001 29.55 3.27001 29.73L3.21001 29.85C3.15001 29.97 3.09 30.08 3.09 30.2L0.280004 42.08C0.160004 42.67 0.340005 43.31 0.750005 43.72C1.10001 44.07 1.51 44.25 1.98 44.25C2.1 44.25 2.27 44.25 2.39 44.19L14.27 41.38C14.39 41.32 14.5 41.32 14.62 41.26L14.74 41.2C14.92 41.14 15.09 41.02 15.21 40.85L37.05 19.01L43.72 12.28C44.43 11.58 44.43 10.47 43.72 9.82001ZM26.69 11.11L28.8 13.22L9.35999 32.71L7.25001 30.6L26.69 11.11ZM4.32001 40.15L5.73 34.12L10.35 38.74L4.32001 40.15ZM13.87 37.22L11.82 35.17L31.26 15.68L33.37 17.79L13.87 37.22ZM35.82 15.27L29.2 8.65L33.41 4.44001L40.03 11.06L35.82 15.27Z" fill="#3A2C51"/>
</svg>
