<svg width="144" height="101" viewBox="0 0 144 101" fill="none" xmlns="http://www.w3.org/2000/svg">
<g clip-path="url(#clip0)">
<path d="M39.41 38.71H137.25C140.74 38.71 143.56 35.88 143.56 32.4C143.56 28.91 140.73 26.09 137.25 26.09H39.41C35.92 26.09 33.1 28.92 33.1 32.4C33.1 35.89 35.92 38.71 39.41 38.71Z" fill="#FFBF00"/>
<path d="M59.28 76.64H123.36C126.85 76.64 129.67 73.81 129.67 70.33C129.67 66.84 126.84 64.02 123.36 64.02H59.28C55.79 64.02 52.97 66.85 52.97 70.33C52.97 73.81 55.8 76.64 59.28 76.64Z" fill="#FF0001"/>
<path d="M50.15 57.14H130.52C134.01 57.14 136.83 54.31 136.83 50.83C136.83 47.35 134 44.52 130.52 44.52H50.15C46.66 44.52 43.84 47.35 43.84 50.83C43.84 54.31 46.66 57.14 50.15 57.14Z" fill="#FF8001"/>
<path d="M38.35 38.62L129.68 57C133.12 57.59 136.38 55.28 136.97 51.84C137.56 48.4 135.25 45.14 131.81 44.55L40.48 26.17C37.04 25.58 33.78 27.89 33.19 31.33C32.6 34.77 34.91 38.04 38.35 38.62Z" fill="#FFD101"/>
<path d="M49.11 57.05L122.65 76.5C126.09 77.09 129.35 74.78 129.94 71.34C130.53 67.9 128.22 64.64 124.78 64.05L51.24 44.6C47.8 44.01 44.54 46.32 43.95 49.76C43.37 53.2 45.68 56.46 49.11 57.05Z" fill="#FF8001"/>
<path d="M4.33 12.63H31.93C34.32 12.63 36.26 9.8 36.26 6.32C36.26 2.84 34.32 0 31.93 0H4.33C1.94 0 0 2.83 0 6.31C0 9.79 1.94 12.63 4.33 12.63Z" fill="#070707"/>
<path d="M25.75 10.47L33.3 19.29C35.6 21.91 39.59 22.18 42.21 19.88C44.83 17.58 45.1 13.59 42.8 10.97L35.25 2.14999C32.95 -0.470015 28.96 -0.740015 26.34 1.55999C23.72 3.85999 23.46 7.84999 25.75 10.47Z" fill="#070707"/>
<path d="M74.31 100.21C79.8936 100.21 84.42 95.6836 84.42 90.1C84.42 84.5164 79.8936 79.99 74.31 79.99C68.7264 79.99 64.2 84.5164 64.2 90.1C64.2 95.6836 68.7264 100.21 74.31 100.21Z" fill="black"/>
<path d="M109.42 100.21C115.004 100.21 119.53 95.6836 119.53 90.1C119.53 84.5164 115.004 79.99 109.42 79.99C103.836 79.99 99.31 84.5164 99.31 90.1C99.31 95.6836 103.836 100.21 109.42 100.21Z" fill="black"/>
</g>
<defs>
<clipPath id="clip0">
<rect width="143.57" height="100.2" fill="white"/>
</clipPath>
</defs>
</svg>
